<?xml version="1.0" standalone="no"?>
<!DOCTYPE svg PUBLIC "-//W3C//DTD SVG 20010904//EN"
 "http://www.w3.org/TR/2001/REC-SVG-20010904/DTD/svg10.dtd">
<svg version="1.0" xmlns="http://www.w3.org/2000/svg"
 width="576.000000pt" height="576.000000pt" viewBox="0 0 576.000000 576.000000"
 preserveAspectRatio="xMidYMid meet">
<metadata>
Created by potrace 1.14, written by Peter Selinger 2001-2017
</metadata>
<g transform="translate(0.000000,576.000000) scale(0.100000,-0.100000)"
fill="#000000" stroke="none">
<path d="M2805 5431 c-91 -23 -172 -91 -220 -187 -16 -32 -30 -61 -30 -64 -1
-3 -45 -95 -99 -205 -159 -324 -269 -550 -271 -555 -2 -8 -184 -382 -207 -425
-30 -57 -37 -62 -93 -69 -27 -3 -59 -8 -70 -10 -11 -2 -42 -7 -70 -10 -27 -4
-63 -9 -80 -11 -16 -3 -46 -7 -65 -10 -19 -2 -46 -6 -60 -9 -14 -2 -47 -7 -73
-11 -27 -4 -56 -8 -65 -10 -10 -1 -39 -6 -67 -9 -87 -12 -119 -17 -145 -21
-14 -3 -42 -7 -62 -10 -37 -5 -84 -12 -143 -21 -16 -3 -48 -7 -70 -9 -22 -3
-51 -7 -65 -10 -14 -3 -45 -8 -70 -11 -25 -3 -53 -8 -64 -10 -10 -2 -44 -6
-75 -10 -31 -3 -58 -8 -61 -9 -3 -2 -28 -6 -57 -10 -106 -13 -199 -80 -251
-180 -22 -43 -26 -62 -26 -135 1 -73 5 -93 28 -140 30 -58 43 -72 726 -740
393 -384 381 -372 375 -390 -2 -8 -7 -33 -10 -55 -4 -22 -8 -51 -10 -64 -2
-13 -8 -45 -12 -70 -4 -25 -8 -48 -8 -51 -2 -11 -17 -97 -21 -125 -4 -27 -14
-84 -29 -170 -2 -16 -7 -40 -9 -52 -3 -11 -8 -43 -12 -70 -3 -26 -9 -57 -11
-68 -2 -11 -7 -36 -9 -55 -3 -19 -9 -57 -14 -85 -5 -27 -12 -63 -14 -80 -5
-30 -10 -58 -21 -125 -6 -38 -13 -80 -20 -122 -3 -16 -7 -40 -10 -55 -13 -80
-16 -101 -23 -128 -3 -16 -6 -73 -7 -125 0 -86 3 -100 29 -147 37 -68 81 -109
153 -143 50 -24 68 -28 138 -26 62 2 91 8 130 28 61 30 231 120 300 158 83 45
173 94 310 165 72 38 132 72 133 77 2 4 9 8 15 8 13 0 28 8 117 57 58 32 134
72 312 167 l107 56 38 -17 c21 -10 40 -20 43 -23 3 -3 34 -20 70 -39 100 -51
270 -141 320 -169 66 -36 182 -98 289 -154 51 -27 125 -66 165 -88 367 -201
417 -223 497 -227 79 -3 157 21 205 62 16 14 31 25 34 25 13 0 69 100 81 145
17 60 16 127 -5 231 -2 12 -7 39 -10 60 -4 22 -16 91 -27 155 -11 63 -21 130
-23 147 -3 17 -9 55 -15 84 -6 29 -13 69 -15 88 -6 33 -8 49 -22 130 -9 51
-12 71 -18 110 -7 41 -13 81 -22 130 -4 19 -8 44 -10 55 -8 59 -16 102 -19
115 -3 8 -7 33 -10 55 -3 22 -7 51 -10 65 -3 14 -7 39 -9 55 -8 57 -17 98 -22
107 -6 9 45 60 719 722 367 359 397 394 413 486 8 48 6 103 -6 134 -5 14 -7
26 -4 26 8 0 -28 62 -64 107 -36 47 -131 99 -197 108 -22 4 -80 12 -130 20
-49 8 -110 16 -135 20 -25 3 -70 10 -100 15 -30 5 -75 11 -100 14 -25 4 -56 8
-70 11 -23 4 -48 8 -150 22 -25 3 -54 7 -65 9 -11 3 -38 7 -60 9 -22 3 -51 7
-65 10 -14 3 -43 7 -65 10 -57 7 -95 13 -130 19 -16 3 -50 8 -75 11 -25 3 -56
7 -70 10 -14 3 -41 7 -60 9 -58 8 -114 16 -137 21 -17 4 -39 39 -95 153 -39
81 -72 149 -73 152 -1 3 -54 113 -119 245 -64 132 -149 307 -189 389 -192 398
-220 448 -268 488 -76 64 -193 92 -284 69z"/>
</g>
</svg>
